<svg id="Layer_1" data-name="Layer 1" xmlns="http://www.w3.org/2000/svg" viewBox="0 0 68.52 15.14"><defs><style>.cls-1{fill:#fff;}</style></defs><title>architec</title><path class="cls-1" d="M6.42,14.91l-.15-1.28H6.21a3.78,3.78,0,0,1-3.11,1.51A2.89,2.89,0,0,1,0,12.22c0-2.46,2.18-3.8,6.11-3.78V8.23A2.09,2.09,0,0,0,3.8,5.88a5.06,5.06,0,0,0-2.65.76L.73,5.42a6.31,6.31,0,0,1,3.34-.9c3.11,0,3.86,2.12,3.86,4.16v3.8a14.31,14.31,0,0,0,.17,2.44ZM6.15,9.72c-2,0-4.3.31-4.3,2.29a1.64,1.64,0,0,0,1.74,1.76A2.53,2.53,0,0,0,6,12.07a1.93,1.93,0,0,0,.1-.59Z"/><path class="cls-1" d="M10.92,7.92c0-1.2,0-2.22-.08-3.17h1.62l.06,2h.08a3,3,0,0,1,2.81-2.22,2,2,0,0,1,.52.06V6.32a2.83,2.83,0,0,0-.63-.06,2.59,2.59,0,0,0-2.48,2.37,5.19,5.19,0,0,0-.08.86v5.42H10.92Z"/><path class="cls-1" d="M25,14.53a6.81,6.81,0,0,1-2.92.59,4.83,4.83,0,0,1-5.06-5.19,5.16,5.16,0,0,1,5.46-5.4,6.18,6.18,0,0,1,2.56.52l-.42,1.43A4.29,4.29,0,0,0,22.51,6a3.52,3.52,0,0,0-3.59,3.84,3.48,3.48,0,0,0,3.53,3.8,5.26,5.26,0,0,0,2.27-.5Z"/><path class="cls-1" d="M27.19,0H29V6.34h0A3.43,3.43,0,0,1,30.41,5a3.8,3.8,0,0,1,1.89-.52c1.36,0,3.55.84,3.55,4.35v6H34V9.07c0-1.64-.61-3-2.35-3a2.65,2.65,0,0,0-2.48,1.85,2.24,2.24,0,0,0-.13.88v6.13H27.19Z"/><path class="cls-1" d="M40.91,1.89a1.14,1.14,0,0,1-2.29,0A1.13,1.13,0,0,1,39.77.74,1.1,1.1,0,0,1,40.91,1.89Zm-2.06,13V4.75H40.7V14.91Z"/><path class="cls-1" d="M46,1.83V4.75h2.65V6.15H46v5.48c0,1.26.36,2,1.39,2a4.13,4.13,0,0,0,1.07-.13l.08,1.39a4.51,4.51,0,0,1-1.64.25,2.56,2.56,0,0,1-2-.78,3.77,3.77,0,0,1-.71-2.65V6.15H42.61V4.75h1.57V2.31Z"/><path class="cls-1" d="M51.74,10.16a3.26,3.26,0,0,0,3.49,3.53A6.7,6.7,0,0,0,58,13.17l.31,1.32a8.23,8.23,0,0,1-3.38.63c-3.13,0-5-2.06-5-5.12s1.81-5.48,4.77-5.48c3.32,0,4.2,2.92,4.2,4.79a7,7,0,0,1-.06.86Zm5.42-1.32c0-1.18-.48-3-2.56-3-1.87,0-2.69,1.72-2.83,3Z"/><path class="cls-1" d="M68.48,14.53a6.81,6.81,0,0,1-2.92.59A4.83,4.83,0,0,1,60.5,9.93,5.16,5.16,0,0,1,66,4.54a6.18,6.18,0,0,1,2.56.52L68.1,6.49A4.29,4.29,0,0,0,66,6a3.52,3.52,0,0,0-3.59,3.84,3.48,3.48,0,0,0,3.53,3.8,5.26,5.26,0,0,0,2.27-.5Z"/></svg>