<svg id="Layer_4" data-name="Layer 4" xmlns="http://www.w3.org/2000/svg" viewBox="0 0 27 20.7"><defs><style>.cls-1{fill-rule:evenodd;}</style></defs><title>cart</title><path class="cls-1" d="M10.35,20.25A1.35,1.35,0,1,1,9,21.6,1.34,1.34,0,0,1,10.35,20.25Zm0-.9A2.25,2.25,0,1,0,12.6,21.6,2.26,2.26,0,0,0,10.35,19.35Zm10.8.9a1.35,1.35,0,1,1-1.35,1.35A1.34,1.34,0,0,1,21.14,20.25Zm0-.9a2.25,2.25,0,1,0,2.25,2.25A2.26,2.26,0,0,0,21.14,19.35ZM.45,3.15a.45.45,0,0,0,0,.9H3.68L4.87,9.21c.64,2.81,1.31,6.59,1.44,7.1a3.89,3.89,0,0,0,.56,1.39,2,2,0,0,0,1.68.74h14.4a2,2,0,0,0,1.68-.74,3.87,3.87,0,0,0,.56-1.39c.24-.89,1.46-6.25,1.7-7.15a2.64,2.64,0,0,0,0-1.52,1.33,1.33,0,0,0-1.25-.89h-18a.45.45,0,0,0,0,.9h18c.29,0,.33.06.4.28a1.94,1.94,0,0,1,0,1c-.24.89-1.46,6.25-1.7,7.16a3.47,3.47,0,0,1-.41,1.08c-.17.24-.38.38-1,.38H8.54c-.57,0-.78-.15-1-.38a3.51,3.51,0,0,1-.41-1.08c-.1-.38-.79-4.26-1.44-7.07S4.48,3.5,4.48,3.5A.45.45,0,0,0,4,3.15Zm8.1,7.2h14.4a.45.45,0,1,1,0,.9H8.55a.45.45,0,1,1,0-.9Zm.9,3.6H22a.45.45,0,0,1,0,.9H9.45a.45.45,0,1,1,0-.9Z" transform="translate(0 -3.15)"/></svg>