<svg id="Layer_1" data-name="Layer 1" xmlns="http://www.w3.org/2000/svg" viewBox="0 0 27 27"><title>contact</title><path d="M26.63,20.84l0-.06L21.78,16a2.16,2.16,0,0,0-3,0L16,18.65A16.53,16.53,0,0,1,12.54,16l-.77-.73c-.3-.31-.64-.67-1-1.06A15.79,15.79,0,0,1,8.36,11l2.7-2.71a2.18,2.18,0,0,0,0-3.06L6.21.41l-.06,0c-.07,0-1.76-.94-2.88.21L1,2.9.89,3C.78,3.16-1.84,7.4,2.47,14.13a27,27,0,0,0,4.28,5.71l.09.09h0l0,0,.22.22h0c.28.28.56.54.84.79a26.89,26.89,0,0,0,5,3.56A13.7,13.7,0,0,0,20.26,27,7.32,7.32,0,0,0,24,26.11l2.39-2.38C27.57,22.61,26.67,20.91,26.63,20.84ZM25.72,23l-2.27,2.27c-.46.26-4.15,2.17-10-1.59l0,0A25.82,25.82,0,0,1,9.47,21c-.6-.49-1.21-1-1.82-1.66-.31-.31-.61-.62-.89-.93a26.2,26.2,0,0,1-3.41-4.74l0,0C-.47,7.71,1.44,4,1.7,3.56L4,1.28c.52-.53,1.41-.17,1.64-.06l4.7,4.68a1.18,1.18,0,0,1,0,1.68l-3.1,3.1.06.26a10.27,10.27,0,0,0,2.15,3.28c.59.69,1.15,1.29,1.47,1.62h0L11,16l.13.13h0c.29.28.78.74,1.36,1.25a10.86,10.86,0,0,0,3.54,2.35l.26.05,3.08-3.09a1.17,1.17,0,0,1,1.67,0l4.69,4.7C25.89,21.61,26.25,22.5,25.72,23Z" transform="translate(0 0)"/></svg>