<?xml version="1.0" encoding="utf-8"?>
<!-- Generator: Adobe Illustrator 21.0.0, SVG Export Plug-In . SVG Version: 6.00 Build 0)  -->
<svg version="1.1" id="Layer_2" xmlns="http://www.w3.org/2000/svg" xmlns:xlink="http://www.w3.org/1999/xlink" x="0px" y="0px"
	 viewBox="0 0 26.8 26.8" style="enable-background:new 0 0 26.8 26.8;" xml:space="preserve">
<style type="text/css">
	.st0{fill-rule:evenodd;clip-rule:evenodd;}
</style>
<path class="st0" d="M4.6,18.6c2.5,2.5,5.4,4.6,8.6,6.2c0.1,0.1,0.3,0.1,0.4,0c3.2-1.6,6.1-3.7,8.6-6.2c1.2-1.2,2.3-2.4,3.1-3.8
	c0.8-1.4,1.5-3.1,1.5-4.8c0-1.9-0.6-3.9-1.9-5.3c-1.3-1.5-3.2-2.4-5.2-2.5c-1.4-0.1-2.7,0.3-3.9,0.9c-1,0.5-1.8,1.4-2.4,2.3
	C12.8,4.4,12,3.6,11,3c-1.2-0.7-2.5-1-3.9-0.9c-2,0.1-3.9,1.1-5.2,2.5C0.6,6.1,0,8.1,0,10c0,1.7,0.6,3.3,1.5,4.8
	C2.3,16.2,3.4,17.5,4.6,18.6z M2.6,5.2C3.7,3.9,5.4,3.1,7.2,3c1.2-0.1,2.4,0.2,3.4,0.8c1,0.6,1.9,1.4,2.4,2.5c0.2,0.3,0.6,0.3,0.8,0
	c0.5-1,1.4-1.9,2.4-2.5c1-0.6,2.2-0.9,3.4-0.8c1.7,0.1,3.4,0.9,4.6,2.2c1.1,1.3,1.7,3,1.7,4.8c0,1.5-0.6,3-1.3,4.3
	c-0.8,1.3-1.8,2.5-3,3.7c-2.4,2.4-5.2,4.3-8.2,5.9c-3-1.6-5.8-3.6-8.2-5.9c-1.1-1.1-2.2-2.3-3-3.7C1.5,13,0.9,11.5,0.9,10
	C0.9,8.2,1.5,6.5,2.6,5.2z"/>
</svg>
