<svg id="Layer_2" data-name="Layer 2" xmlns="http://www.w3.org/2000/svg" viewBox="0 0 25.2 27"><defs><style>.cls-1{fill-rule:evenodd;}</style></defs><title>location</title><path class="cls-1" d="M13.5.9a6.29,6.29,0,0,1,6.3,6.3c0,2.54-1.37,5.53-2.89,7.85a20.86,20.86,0,0,1-2.22,2.85,7.64,7.64,0,0,1-.86.79.46.46,0,0,1-.66,0,7.64,7.64,0,0,1-.86-.79,20.86,20.86,0,0,1-2.22-2.85C8.57,12.73,7.2,9.74,7.2,7.2A6.29,6.29,0,0,1,13.5.9Zm0-.9A7.21,7.21,0,0,0,6.3,7.2c0,2.86,1.46,5.94,3,8.35a21.57,21.57,0,0,0,2.32,3,8.17,8.17,0,0,0,1,.89,1.36,1.36,0,0,0,.87.39,1.36,1.36,0,0,0,.87-.39,8.17,8.17,0,0,0,1-.89,21.57,21.57,0,0,0,2.32-3c1.58-2.4,3-5.49,3-8.35A7.21,7.21,0,0,0,13.5,0Zm0,4.5a2.7,2.7,0,1,1-2.7,2.7A2.69,2.69,0,0,1,13.5,4.5Zm0-.9a3.6,3.6,0,1,0,3.6,3.6A3.61,3.61,0,0,0,13.5,3.6ZM3.15,9.9a.44.44,0,0,0-.44.4L.91,25.6A1.31,1.31,0,0,0,2.26,27H24.74a1.31,1.31,0,0,0,1.35-1.4L24.29,10.3a.45.45,0,0,0-.89.11L25.2,25.7c0,.19-.2.4-.45.4H2.26c-.25,0-.48-.2-.45-.4L3.6,10.41A.46.46,0,0,0,3.15,9.9Z" transform="translate(-0.9 0)"/></svg>