<svg version="1.1" id="Layer_1" xmlns="http://www.w3.org/2000/svg" xmlns:xlink="http://www.w3.org/1999/xlink" x="0px" y="0px"
	 viewBox="0 0 21 21" style="enable-background:new 0 0 21 21;" xml:space="preserve">
<style type="text/css">
	.st0{fill:#FFFFFF;}
</style>
<title>search</title>
<path class="st0" d="M16.6,2c-2.1-1.1-4.7-0.8-6.4,0.8c-0.1,0.1-0.1,0.4,0,0.5c0.1,0.1,0.3,0.1,0.4,0c1.5-1.4,3.8-1.7,5.6-0.7
	c0.2,0.1,0.4,0,0.5-0.1S16.8,2.1,16.6,2L16.6,2z"/>
<path class="st0" d="M8.5,13.4l-6.6,6.6c-0.4,0.4-0.8,0.3-1,0.1c-0.3-0.2-0.3-0.6-0.1-0.9c0,0,0.1-0.1,0.1-0.1l6.7-6.6
	c0.1-0.1,0.1-0.4,0-0.5s-0.4-0.1-0.5,0l-6.7,6.7c-0.6,0.5-0.6,1.4-0.1,1.9c0,0,0,0,0,0.1c0.5,0.5,1.4,0.5,2,0c0,0,0,0,0-0.1L9,13.9
	C9.3,13.6,8.8,13.1,8.5,13.4z"/>
<path class="st0" d="M14,0c-3.9,0-7,3.1-7,7s3.1,7,7,7s7-3.1,7-7S17.9,0,14,0z M14,13.3c-3.5,0-6.3-2.8-6.3-6.3s2.8-6.3,6.3-6.3
	s6.3,2.8,6.3,6.3c0,0,0,0,0,0C20.3,10.5,17.5,13.3,14,13.3C14,13.3,14,13.3,14,13.3z"/>
</svg>
